<svg width="36" height="36" viewBox="0 0 36 36" fill="none" xmlns="http://www.w3.org/2000/svg">
<path d="M4.5 31.5H3.5C3.5 32.0523 3.94772 32.5 4.5 32.5V31.5ZM31.5 31.5V32.5C32.0523 32.5 32.5 32.0523 32.5 31.5H31.5ZM9 9.5C8.44772 9.5 8 9.94772 8 10.5C8 11.0523 8.44772 11.5 9 11.5V9.5ZM10.5 11.5C11.0523 11.5 11.5 11.0523 11.5 10.5C11.5 9.94772 11.0523 9.5 10.5 9.5V11.5ZM16.5 9.5C15.9477 9.5 15.5 9.94772 15.5 10.5C15.5 11.0523 15.9477 11.5 16.5 11.5V9.5ZM18 11.5C18.5523 11.5 19 11.0523 19 10.5C19 9.94772 18.5523 9.5 18 9.5V11.5ZM9 14C8.44772 14 8 14.4477 8 15C8 15.5523 8.44772 16 9 16V14ZM10.5 16C11.0523 16 11.5 15.5523 11.5 15C11.5 14.4477 11.0523 14 10.5 14V16ZM16.5 14C15.9477 14 15.5 14.4477 15.5 15C15.5 15.5523 15.9477 16 16.5 16V14ZM18 16C18.5523 16 19 15.5523 19 15C19 14.4477 18.5523 14 18 14V16ZM9 18.5C8.44772 18.5 8 18.9477 8 19.5C8 20.0523 8.44772 20.5 9 20.5V18.5ZM10.5 20.5C11.0523 20.5 11.5 20.0523 11.5 19.5C11.5 18.9477 11.0523 18.5 10.5 18.5V20.5ZM16.5 18.5C15.9477 18.5 15.5 18.9477 15.5 19.5C15.5 20.0523 15.9477 20.5 16.5 20.5V18.5ZM18 20.5C18.5523 20.5 19 20.0523 19 19.5C19 18.9477 18.5523 18.5 18 18.5V20.5ZM16.5 31.5V32.5H17.5V31.5H16.5ZM10.5 31.5H9.5V32.5H10.5V31.5ZM27 15.5C26.4477 15.5 26 15.9477 26 16.5C26 17.0523 26.4477 17.5 27 17.5V15.5ZM27.015 17.5C27.5673 17.5 28.015 17.0523 28.015 16.5C28.015 15.9477 27.5673 15.5 27.015 15.5V17.5ZM27 20C26.4477 20 26 20.4477 26 21C26 21.5523 26.4477 22 27 22V20ZM27.015 22C27.5673 22 28.015 21.5523 28.015 21C28.015 20.4477 27.5673 20 27.015 20V22ZM27 24.5C26.4477 24.5 26 24.9477 26 25.5C26 26.0523 26.4477 26.5 27 26.5V24.5ZM27.015 26.5C27.5673 26.5 28.015 26.0523 28.015 25.5C28.015 24.9477 27.5673 24.5 27.015 24.5V26.5ZM31.3365 11.319L30.4455 11.773L31.3365 11.319ZM30.681 10.6635L30.227 11.5545L30.681 10.6635ZM21.681 4.66349L21.227 5.5545L21.681 4.66349ZM22.3365 5.31901L21.4455 5.773L22.3365 5.31901ZM4.66349 5.31901L5.5545 5.773L4.66349 5.31901ZM5.31901 4.66349L5.773 5.5545L5.31901 4.66349ZM3.5 6.9V31.5H5.5V6.9H3.5ZM6.9 5.5H20.1V3.5H6.9V5.5ZM21.5 6.9V10.5H23.5V6.9H21.5ZM21.5 10.5V31.5H23.5V10.5H21.5ZM4.5 32.5H22.5V30.5H4.5V32.5ZM22.5 32.5H31.5V30.5H22.5V32.5ZM30.5 12.9V31.5H32.5V12.9H30.5ZM22.5 11.5H29.1V9.5H22.5V11.5ZM9 11.5H10.5V9.5H9V11.5ZM16.5 11.5H18V9.5H16.5V11.5ZM9 16H10.5V14H9V16ZM16.5 16H18V14H16.5V16ZM9 20.5H10.5V18.5H9V20.5ZM16.5 20.5H18V18.5H16.5V20.5ZM15.5 27V31.5H17.5V27H15.5ZM16.5 30.5H10.5V32.5H16.5V30.5ZM11.5 31.5V27H9.5V31.5H11.5ZM13.5 25C14.6046 25 15.5 25.8954 15.5 27H17.5C17.5 24.7909 15.7091 23 13.5 23V25ZM13.5 23C11.2909 23 9.5 24.7909 9.5 27H11.5C11.5 25.8954 12.3954 25 13.5 25V23ZM27 17.5H27.015V15.5H27V17.5ZM27 22H27.015V20H27V22ZM27 26.5H27.015V24.5H27V26.5ZM32.5 12.9C32.5 12.4965 32.5008 12.1337 32.4762 11.8334C32.4508 11.5214 32.3931 11.1899 32.2275 10.865L30.4455 11.773C30.4457 11.7734 30.4468 11.7756 30.4487 11.7808C30.4506 11.7862 30.4538 11.7962 30.4577 11.8125C30.4657 11.8467 30.4753 11.9031 30.4829 11.9962C30.4992 12.1962 30.5 12.4635 30.5 12.9H32.5ZM29.1 11.5C29.5365 11.5 29.8038 11.5008 30.0038 11.5171C30.0969 11.5247 30.1533 11.5343 30.1875 11.5423C30.2038 11.5462 30.2138 11.5494 30.2192 11.5513C30.2244 11.5532 30.2266 11.5543 30.227 11.5545L31.135 9.77248C30.8101 9.60694 30.4786 9.54925 30.1666 9.52376C29.8663 9.49922 29.5035 9.5 29.1 9.5V11.5ZM32.2275 10.865C31.9878 10.3946 31.6054 10.0122 31.135 9.77248L30.227 11.5545C30.3211 11.6024 30.3976 11.6789 30.4455 11.773L32.2275 10.865ZM20.1 5.5C20.5365 5.5 20.8038 5.50078 21.0038 5.51712C21.0969 5.52473 21.1533 5.53429 21.1875 5.54235C21.2038 5.54618 21.2138 5.54939 21.2192 5.55133C21.2244 5.55318 21.2266 5.55429 21.227 5.5545L22.135 3.77248C21.8101 3.60694 21.4786 3.54925 21.1666 3.52376C20.8663 3.49922 20.5035 3.5 20.1 3.5V5.5ZM23.5 6.9C23.5 6.49646 23.5008 6.13367 23.4762 5.83337C23.4508 5.5214 23.3931 5.18993 23.2275 4.86502L21.4455 5.773C21.4457 5.77341 21.4468 5.77559 21.4487 5.78079C21.4506 5.7862 21.4538 5.79622 21.4577 5.8125C21.4657 5.84673 21.4753 5.90308 21.4829 5.99623C21.4992 6.1962 21.5 6.46346 21.5 6.9H23.5ZM21.227 5.5545C21.3211 5.60243 21.3976 5.67892 21.4455 5.773L23.2275 4.86502C22.9878 4.39462 22.6054 4.01217 22.135 3.77248L21.227 5.5545ZM5.5 6.9C5.5 6.46346 5.50078 6.1962 5.51712 5.99623C5.52473 5.90308 5.53429 5.84673 5.54235 5.8125C5.54618 5.79622 5.54939 5.7862 5.55133 5.78079C5.55318 5.77559 5.55429 5.77341 5.5545 5.773L3.77248 4.86502C3.60694 5.18993 3.54925 5.5214 3.52376 5.83337C3.49922 6.13367 3.5 6.49646 3.5 6.9H5.5ZM6.9 3.5C6.49646 3.5 6.13367 3.49922 5.83337 3.52376C5.5214 3.54925 5.18993 3.60694 4.86502 3.77248L5.773 5.5545C5.77341 5.55429 5.77559 5.55318 5.78079 5.55133C5.7862 5.54939 5.79622 5.54618 5.8125 5.54235C5.84673 5.53429 5.90308 5.52473 5.99623 5.51712C6.1962 5.50078 6.46346 5.5 6.9 5.5V3.5ZM5.5545 5.773C5.60243 5.67892 5.67892 5.60243 5.773 5.5545L4.86502 3.77248C4.39462 4.01217 4.01217 4.39462 3.77248 4.86502L5.5545 5.773Z" fill="url(#paint0_linear_78_4480)"/>
<defs>
<linearGradient id="paint0_linear_78_4480" x1="18" y1="4.5" x2="18" y2="31.5" gradientUnits="userSpaceOnUse">
<stop stop-color="#67088A"/>
<stop offset="1" stop-color="#F5B116"/>
</linearGradient>
</defs>
</svg>
