<svg width="36" height="36" viewBox="0 0 36 36" fill="none" xmlns="http://www.w3.org/2000/svg">
<path d="M31.5 18C31.5 25.4558 25.4558 31.5 18 31.5M31.5 18C31.5 10.5442 25.4558 4.5 18 4.5M31.5 18C31.5 20.4853 25.4558 22.5 18 22.5C10.5442 22.5 4.5 20.4853 4.5 18M31.5 18C31.5 15.5147 25.4558 13.5 18 13.5C10.5442 13.5 4.5 15.5147 4.5 18M18 31.5C10.5442 31.5 4.5 25.4558 4.5 18M18 31.5C15.5147 31.5 13.5 25.4558 13.5 18C13.5 10.5442 15.5147 4.5 18 4.5M18 31.5C20.4853 31.5 22.5 25.4558 22.5 18C22.5 10.5442 20.4853 4.5 18 4.5M4.5 18C4.5 10.5442 10.5442 4.5 18 4.5" stroke="url(#paint0_linear_78_4493)" stroke-width="2" stroke-linecap="round" stroke-linejoin="round"/>
<defs>
<linearGradient id="paint0_linear_78_4493" x1="18" y1="4.5" x2="18" y2="31.5" gradientUnits="userSpaceOnUse">
<stop stop-color="#67088A"/>
<stop offset="1" stop-color="#F5B116"/>
</linearGradient>
</defs>
</svg>
