<svg width="240" height="72" viewBox="0 0 240 72" fill="none" xmlns="http://www.w3.org/2000/svg">
<g clip-path="url(#clip0_78_4441)">
<g clip-path="url(#clip1_78_4441)">
<g clip-path="url(#clip2_78_4441)">
<path d="M85.7298 12.1485C85.7298 10.8295 85.0774 9.76025 84.2726 9.76025C83.4678 9.76025 82.8154 10.8295 82.8154 12.1485V59.1013C82.8154 60.4203 83.4678 61.4895 84.2726 61.4895C85.0774 61.4895 85.7298 60.4203 85.7298 59.1013V12.1485Z" fill="#A020F0"/>
<g clip-path="url(#clip3_78_4441)">
<g clip-path="url(#clip4_78_4441)">
<g clip-path="url(#clip5_78_4441)">
<g clip-path="url(#clip6_78_4441)">
<path d="M97.8908 31.4635H108.284L107.967 34.0016H94.4833L94.7181 30.829V13.5379L94.2422 10.2065H107.726V12.7447H97.7321L98.0494 15.7587V19.9594H106.616V22.2627H98.0494V28.6081L97.8908 31.4635ZM116.927 20.6129V34.0016H113.913V16.5519L116.927 16.2346V19.1345L117.891 17.4402C118.082 17.3133 118.325 17.1801 118.621 17.0405C118.917 16.9051 119.247 16.7824 119.611 16.6725C119.979 16.5582 120.374 16.4652 120.798 16.3933C121.221 16.3171 121.648 16.279 122.079 16.279C122.917 16.279 123.623 16.4144 124.199 16.6852C124.774 16.9559 125.241 17.3451 125.601 17.8527C125.961 18.3603 126.219 18.9737 126.375 19.6929C126.527 20.412 126.604 21.2157 126.604 22.1041V34.0016H123.589V22.1041C123.589 21.533 123.549 21.0402 123.469 20.6256C123.389 20.2153 123.251 19.8748 123.056 19.604C122.862 19.3333 122.6 19.1345 122.27 19.0076C121.944 18.8806 121.538 18.8172 121.051 18.8172C120.692 18.8172 120.326 18.8743 119.954 18.9885C119.586 19.0985 119.224 19.2402 118.869 19.4137C118.513 19.5871 118.171 19.7796 117.841 19.9911C117.506 20.2026 117.202 20.4099 116.927 20.6129ZM142.626 34.4966V31.8569L141.242 33.6019C141.145 33.6653 141.01 33.7351 140.836 33.8113C140.663 33.8832 140.449 33.9551 140.195 34.027C139.941 34.0947 139.645 34.1518 139.307 34.1983C138.968 34.2491 138.594 34.2745 138.184 34.2745C137.219 34.2745 136.322 34.0376 135.493 33.5638C134.664 33.0942 133.941 32.4555 133.323 31.6475C132.714 30.8353 132.234 29.8877 131.883 28.8048C131.536 27.7218 131.363 26.5712 131.363 25.3529C131.363 24.1177 131.521 22.9501 131.838 21.8503C132.156 20.7504 132.632 19.788 133.266 18.9631C133.901 18.1382 134.687 17.4847 135.627 17.0024C136.57 16.5202 137.666 16.279 138.913 16.279C139.303 16.279 139.686 16.296 140.062 16.3298C140.434 16.3594 140.785 16.4335 141.115 16.5519L142.626 18.8045V16.2346L145.64 16.5519V34.7313C145.64 35.7678 145.462 36.7407 145.107 37.6502C144.751 38.5597 144.241 39.3508 143.577 40.0234C142.909 40.696 142.097 41.2269 141.141 41.6161C140.185 42.0095 139.104 42.2062 137.898 42.2062C137.061 42.2062 136.327 42.1004 135.696 41.8889C135.066 41.6774 134.531 41.4447 134.091 41.1909C133.579 40.8948 133.139 40.55 132.771 40.1566L134.326 38.4117C134.635 38.6443 134.979 38.8558 135.36 39.0462C135.686 39.2069 136.064 39.3508 136.496 39.4777C136.932 39.6046 137.403 39.668 137.911 39.668C138.567 39.668 139.18 39.5327 139.751 39.2619C140.322 38.9912 140.821 38.6232 141.249 38.1578C141.676 37.6925 142.012 37.1447 142.257 36.5144C142.503 35.8883 142.626 35.2157 142.626 34.4966ZM142.626 29.636V20.7716C142.338 20.412 142.004 20.0884 141.623 19.8007C141.297 19.5596 140.902 19.3354 140.436 19.1281C139.971 18.9208 139.436 18.8172 138.831 18.8172C138.196 18.8172 137.647 18.9187 137.181 19.1218C136.716 19.3206 136.316 19.5892 135.982 19.9276C135.652 20.266 135.383 20.6616 135.176 21.1142C134.969 21.5626 134.804 22.0385 134.681 22.5419C134.563 23.0411 134.48 23.5487 134.434 24.0648C134.396 24.5767 134.377 25.0695 134.377 25.5433C134.377 26.4443 134.474 27.2734 134.668 28.0306C134.863 28.7836 135.138 29.433 135.493 29.9787C135.844 30.5244 136.272 30.9495 136.775 31.2541C137.279 31.5629 137.833 31.7173 138.438 31.7173C138.975 31.7173 139.455 31.6581 139.878 31.5396C140.301 31.4254 140.682 31.271 141.02 31.0764C141.359 30.8776 141.657 30.6555 141.915 30.4102C142.177 30.1606 142.414 29.9025 142.626 29.636ZM163.083 31.1462L163.4 34.0016H160.069V31.4318L158.578 33.2085C158.4 33.3438 158.195 33.475 157.962 33.6019C157.73 33.7288 157.495 33.843 157.258 33.9445C157.017 34.046 156.778 34.1264 156.541 34.1856C156.304 34.2449 156.084 34.2745 155.881 34.2745C155.09 34.2745 154.333 34.1497 153.609 33.9001C152.882 33.6505 152.247 33.2846 151.706 32.8024C151.16 32.3201 150.726 31.7236 150.405 31.013C150.079 30.2981 149.916 29.4753 149.916 28.5446C149.916 27.559 150.115 26.7045 150.513 25.9811C150.91 25.2577 151.418 24.6549 152.036 24.1727C152.653 23.6904 153.343 23.3309 154.104 23.094C154.866 22.8571 155.612 22.7386 156.344 22.7386C156.945 22.7386 157.476 22.7703 157.937 22.8338C158.398 22.8973 158.787 22.9713 159.104 23.0559C159.472 23.149 159.794 23.2547 160.069 23.3732V22.8148C160.069 22.1929 160.033 21.6324 159.961 21.1332C159.885 20.6383 159.735 20.2195 159.511 19.8769C159.282 19.53 158.954 19.2677 158.527 19.09C158.096 18.9081 157.527 18.8172 156.82 18.8172C156.249 18.8172 155.699 18.8574 155.17 18.9378C154.642 19.0181 154.17 19.1048 153.755 19.1979C153.269 19.3164 152.82 19.439 152.41 19.5659L151.268 17.4402C151.733 17.2287 152.262 17.0384 152.854 16.8692C153.362 16.7211 153.965 16.5857 154.663 16.4631C155.361 16.3404 156.133 16.279 156.979 16.279C158.193 16.279 159.197 16.444 159.993 16.774C160.784 17.0997 161.408 17.5587 161.865 18.1509C162.317 18.7432 162.635 19.456 162.816 20.2893C162.994 21.1184 163.083 22.0406 163.083 23.0559V31.1462ZM160.069 29.6551V25.5433C159.773 25.501 159.456 25.4587 159.117 25.4164C158.834 25.3868 158.506 25.355 158.134 25.3212C157.766 25.2916 157.381 25.2768 156.979 25.2768C156.386 25.2768 155.845 25.3339 155.354 25.4481C154.859 25.5665 154.432 25.7548 154.073 26.0128C153.713 26.2709 153.434 26.6072 153.235 27.0217C153.032 27.4321 152.93 27.9334 152.93 28.5256C152.93 29.0036 153.011 29.4372 153.172 29.8264C153.328 30.2198 153.544 30.5582 153.819 30.8416C154.094 31.1293 154.419 31.3493 154.796 31.5016C155.172 31.6538 155.576 31.73 156.008 31.73C156.211 31.73 156.427 31.7025 156.655 31.6475C156.879 31.5883 157.106 31.51 157.334 31.4127C157.562 31.3197 157.791 31.2097 158.019 31.0828C158.244 30.9559 158.457 30.8289 158.66 30.702C159.134 30.3932 159.604 30.0442 160.069 29.6551ZM178.312 34.4966V31.8569L176.929 33.6019C176.835 33.6653 176.702 33.7351 176.529 33.8113C176.355 33.8832 176.142 33.9551 175.888 34.027C175.63 34.0947 175.334 34.1518 175 34.1983C174.661 34.2491 174.285 34.2745 173.87 34.2745C172.91 34.2745 172.013 34.0376 171.18 33.5638C170.351 33.0942 169.629 32.4555 169.016 31.6475C168.402 30.8353 167.922 29.8877 167.575 28.8048C167.224 27.7218 167.049 26.5712 167.049 25.3529C167.049 24.1177 167.207 22.9501 167.525 21.8503C167.842 20.7504 168.318 19.788 168.952 18.9631C169.587 18.1382 170.376 17.4847 171.319 17.0024C172.258 16.5202 173.352 16.279 174.6 16.279C174.989 16.279 175.372 16.296 175.748 16.3298C176.125 16.3594 176.478 16.4335 176.808 16.5519L178.312 18.8045V16.2346L181.326 16.5519V34.7313C181.326 35.7678 181.148 36.7407 180.793 37.6502C180.438 38.5597 179.928 39.3508 179.264 40.0234C178.599 40.696 177.787 41.2269 176.827 41.6161C175.871 42.0095 174.79 42.2062 173.585 42.2062C172.751 42.2062 172.019 42.1004 171.389 41.8889C170.759 41.6774 170.221 41.4447 169.777 41.1909C169.27 40.8948 168.832 40.55 168.464 40.1566L170.018 38.4117C170.323 38.6443 170.666 38.8558 171.046 39.0462C171.376 39.2069 171.757 39.3508 172.189 39.4777C172.624 39.6046 173.094 39.668 173.597 39.668C174.257 39.668 174.873 39.5327 175.444 39.2619C176.011 38.9912 176.51 38.6232 176.941 38.1578C177.368 37.6925 177.705 37.1447 177.95 36.5144C178.191 35.8883 178.312 35.2157 178.312 34.4966ZM178.312 29.636V20.7716C178.024 20.412 177.692 20.0884 177.316 19.8007C176.986 19.5596 176.588 19.3354 176.123 19.1281C175.657 18.9208 175.124 18.8172 174.524 18.8172C173.889 18.8172 173.339 18.9187 172.874 19.1218C172.409 19.3206 172.009 19.5892 171.675 19.9276C171.34 20.266 171.07 20.6616 170.862 21.1142C170.659 21.5626 170.496 22.0385 170.374 22.5419C170.251 23.0411 170.169 23.5487 170.126 24.0648C170.084 24.5767 170.063 25.0695 170.063 25.5433C170.063 26.4443 170.16 27.2734 170.355 28.0306C170.554 28.7836 170.829 29.433 171.18 29.9787C171.535 30.5244 171.964 30.9495 172.468 31.2541C172.971 31.5629 173.523 31.7173 174.124 31.7173C174.665 31.7173 175.148 31.6581 175.571 31.5396C175.994 31.4254 176.374 31.271 176.713 31.0764C177.051 30.8776 177.349 30.6555 177.607 30.4102C177.866 30.1606 178.1 29.9025 178.312 29.636ZM198.09 30.4292L199.823 31.9521C199.493 32.2905 199.133 32.6035 198.744 32.8912C198.35 33.1788 197.917 33.4242 197.443 33.6273C196.965 33.8345 196.438 33.9932 195.863 34.1032C195.288 34.2174 194.645 34.2745 193.934 34.2745C192.53 34.2745 191.33 34.0249 190.336 33.5257C189.342 33.0266 188.53 32.3603 187.9 31.5269C187.269 30.6894 186.81 29.7312 186.523 28.6525C186.231 27.5738 186.085 26.4485 186.085 25.2768C186.085 24.5238 186.153 23.7814 186.288 23.0495C186.428 22.3135 186.635 21.6113 186.91 20.9429C187.185 20.2787 187.527 19.6611 187.938 19.09C188.352 18.519 188.835 18.0261 189.384 17.6116C189.934 17.2012 190.556 16.8776 191.25 16.6407C191.94 16.3996 192.703 16.279 193.541 16.279C194.683 16.279 195.671 16.4652 196.504 16.8374C197.342 17.2055 198.035 17.7237 198.585 18.3921C199.135 19.0562 199.541 19.8536 199.804 20.7843C200.07 21.7149 200.203 22.7471 200.203 23.8808C200.203 24.2065 200.193 24.5661 200.172 24.9595C200.15 25.3487 200.119 25.7188 200.076 26.0699H189.099C189.099 26.861 189.207 27.6013 189.423 28.2908C189.638 28.9761 189.943 29.5768 190.336 30.0929C190.725 30.6047 191.199 31.0066 191.758 31.2985C192.312 31.5862 192.932 31.73 193.617 31.73C194.294 31.73 194.884 31.6813 195.387 31.584C195.891 31.4825 196.322 31.3598 196.682 31.216C197.041 31.0722 197.335 30.9262 197.564 30.7782C197.788 30.6301 197.963 30.5138 198.09 30.4292ZM191.396 23.6904H197.189C197.198 23.572 197.206 23.4556 197.215 23.3414C197.219 23.2272 197.221 23.1109 197.221 22.9924C197.221 22.3875 197.151 21.8312 197.012 21.3236C196.876 20.816 196.669 20.376 196.39 20.0038C196.106 19.6273 195.749 19.3333 195.317 19.1218C194.882 18.9103 194.368 18.8045 193.775 18.8045C193.069 18.8045 192.464 18.9187 191.961 19.1472C191.457 19.3714 191.034 19.6611 190.692 20.0165C190.349 20.3718 190.074 20.761 189.867 21.184C189.659 21.607 189.503 22.0089 189.397 22.3896L188.572 24.1156L191.396 23.6904Z" fill="#A020F0"/>
<path d="M215.21 34.0015H212.291L218.998 13.3791L219.556 10.2064L222.996 9.88916L230.896 34.0015H227.723L225.375 26.863H217.526L215.21 34.0015ZM222.012 16.5518L221.441 12.4273L220.87 16.5518L218.3 24.4835H224.601L222.012 16.5518ZM238.275 34.0015H234.944V13.5377L234.468 10.2064L238.275 9.88916V34.0015Z" fill="#770737"/>
</g>
</g>
<g clip-path="url(#clip7_78_4441)">
<g clip-path="url(#clip8_78_4441)">
<path d="M95.7453 59.5671C94.9279 59.5671 94.3428 59.4354 93.9898 59.1721C93.6369 58.9088 93.4495 58.4736 93.4275 57.8665C93.3471 55.7544 93.3471 53.6424 93.4275 51.5303C93.4495 50.9763 93.6397 50.5557 93.9981 50.2686C94.3546 49.9797 94.9325 49.8352 95.7316 49.8352C96.5581 49.8352 97.1597 49.9669 97.5364 50.2302C97.9131 50.4935 98.1106 50.9287 98.1289 51.5358C98.138 51.6839 98.1426 51.8659 98.1426 52.0817C98.1426 52.2993 98.1389 52.5159 98.1316 52.7317C98.1261 52.9493 98.1207 53.134 98.1152 53.2858H97.1853C97.1945 52.995 97.2 52.6778 97.2018 52.334C97.2036 51.9902 97.1981 51.673 97.1853 51.3822C97.1798 51.1152 97.0692 50.9232 96.8534 50.8062C96.6377 50.691 96.2637 50.6334 95.7316 50.6334C95.2452 50.6334 94.8977 50.691 94.6893 50.8062C94.4826 50.9232 94.3729 51.1152 94.3601 51.3822C94.2888 53.593 94.2888 55.8056 94.3601 58.0201C94.3729 58.2834 94.4826 58.4745 94.6893 58.5933C94.8977 58.7104 95.2497 58.7689 95.7453 58.7689C96.303 58.7689 96.6943 58.7104 96.9193 58.5933C97.146 58.4745 97.2658 58.2834 97.2786 58.0201C97.2914 57.7074 97.2923 57.3709 97.2813 57.0107C97.2704 56.6523 97.2585 56.3167 97.2457 56.004H98.1975C98.2194 56.3167 98.2322 56.6258 98.2359 56.9311C98.2414 57.2365 98.2322 57.5483 98.2084 57.8665C98.1828 58.4736 97.9789 58.9088 97.5968 59.1721C97.2146 59.4354 96.5974 59.5671 95.7453 59.5671ZM101.261 59.5588C100.535 59.5588 100.022 59.4345 99.7225 59.1858C99.4226 58.9353 99.2617 58.5193 99.2398 57.9378C99.2142 57.6086 99.1968 57.242 99.1877 56.8379C99.1785 56.4337 99.1785 56.026 99.1877 55.6145C99.1968 55.2049 99.2142 54.8328 99.2398 54.4982C99.2617 53.9167 99.4235 53.5007 99.7253 53.2501C100.027 53.0014 100.539 52.8771 101.261 52.8771C101.995 52.8771 102.508 53.0014 102.8 53.2501C103.093 53.5007 103.25 53.9167 103.272 54.4982C103.299 54.8273 103.317 55.194 103.324 55.5981C103.333 56.0022 103.333 56.4091 103.324 56.8187C103.317 57.2265 103.299 57.5995 103.272 57.9378C103.25 58.5138 103.093 58.928 102.8 59.1803C102.508 59.4327 101.995 59.5588 101.261 59.5588ZM101.261 58.81C101.673 58.81 101.965 58.7597 102.139 58.6592C102.315 58.5586 102.409 58.3922 102.422 58.16C102.465 57.4633 102.487 56.8159 102.487 56.218C102.487 55.62 102.465 54.9727 102.422 54.276C102.409 54.0401 102.317 53.8728 102.147 53.774C101.977 53.6753 101.682 53.6259 101.261 53.6259C100.843 53.6259 100.547 53.6753 100.375 53.774C100.203 53.8728 100.111 54.0401 100.098 54.276C100.058 54.9727 100.036 55.6209 100.032 56.2207C100.031 56.8223 100.053 57.4687 100.098 58.16C100.107 58.3922 100.202 58.5586 100.381 58.6592C100.562 58.7597 100.855 58.81 101.261 58.81ZM105.346 54.2156V59.4793H104.484V52.9649H105.346V53.5738H105.554C105.693 53.3507 105.875 53.1788 106.1 53.0581C106.325 52.9374 106.609 52.8771 106.953 52.8771C107.458 52.8771 107.833 52.9877 108.08 53.209C108.325 53.4284 108.448 53.7978 108.448 54.3171V59.4793H107.589V54.2431C107.589 54.02 107.519 53.8581 107.378 53.7576C107.239 53.657 107.013 53.6067 106.701 53.6067C106.388 53.6067 106.113 53.6597 105.875 53.7658C105.639 53.8737 105.463 54.0236 105.346 54.2156ZM110.53 54.2156V59.4793H109.666V52.9649H110.53V53.5738H110.738C110.875 53.3507 111.057 53.1788 111.284 53.0581C111.509 52.9374 111.793 52.8771 112.137 52.8771C112.642 52.8771 113.017 52.9877 113.262 53.209C113.507 53.4284 113.629 53.7978 113.629 54.3171V59.4793H112.773V54.2431C112.773 54.02 112.703 53.8581 112.562 53.7576C112.421 53.657 112.195 53.6067 111.882 53.6067C111.569 53.6067 111.295 53.6597 111.059 53.7658C110.821 53.8737 110.645 54.0236 110.53 54.2156ZM116.863 59.5588C116.126 59.5588 115.6 59.4427 115.286 59.2105C114.971 58.9783 114.803 58.5988 114.781 58.0722C114.763 57.743 114.751 57.3545 114.745 56.9064C114.738 56.4603 114.738 56.0123 114.745 55.5624C114.751 55.1107 114.763 54.7176 114.781 54.383C114.803 53.8435 114.976 53.4577 115.3 53.2255C115.623 52.9932 116.144 52.8771 116.863 52.8771C117.541 52.8771 118.032 52.9905 118.336 53.2172C118.64 53.4458 118.807 53.8207 118.838 54.3418C118.847 54.4991 118.856 54.7715 118.865 55.1592C118.874 55.5487 118.862 55.962 118.827 56.399H115.618C115.618 56.6806 115.62 56.9659 115.626 57.2548C115.63 57.5455 115.638 57.8473 115.651 58.16C115.656 58.405 115.75 58.5751 115.933 58.6701C116.116 58.7634 116.417 58.81 116.836 58.81C117.251 58.81 117.543 58.7634 117.713 58.6701C117.883 58.5751 117.978 58.405 117.996 58.16C118.009 57.9149 118.009 57.5803 117.996 57.156H118.827C118.849 57.2859 118.859 57.4367 118.857 57.6086C118.853 57.7805 118.847 57.935 118.838 58.0722C118.807 58.5988 118.648 58.9783 118.361 59.2105C118.072 59.4427 117.573 59.5588 116.863 59.5588ZM115.618 55.6886H118.01C118.019 55.385 118.023 55.0952 118.023 54.8191C118.023 54.5411 118.014 54.351 117.996 54.2486C117.978 54.0255 117.882 53.8664 117.708 53.7713C117.534 53.6744 117.253 53.6259 116.863 53.6259C116.43 53.6259 116.121 53.6744 115.936 53.7713C115.751 53.8664 115.656 54.0255 115.651 54.2486C115.638 54.5082 115.628 54.756 115.62 54.9919C115.615 55.2296 115.614 55.4618 115.618 55.6886ZM123.929 55.2525H123.084C123.102 55.097 123.11 54.9187 123.109 54.7176C123.105 54.5164 123.103 54.3601 123.103 54.2486C123.099 54.0127 123.007 53.8499 122.826 53.7603C122.645 53.6707 122.35 53.6259 121.94 53.6259C121.52 53.6259 121.22 53.6707 121.04 53.7603C120.863 53.8499 120.772 54.0127 120.766 54.2486C120.735 54.9507 120.72 55.6036 120.72 56.207C120.72 56.8123 120.735 57.4633 120.766 58.16C120.772 58.405 120.863 58.5751 121.04 58.6701C121.22 58.7634 121.517 58.81 121.932 58.81C122.343 58.81 122.641 58.7634 122.823 58.6701C123.006 58.5751 123.099 58.405 123.103 58.16C123.103 58.0393 123.105 57.893 123.109 57.7211C123.11 57.5492 123.102 57.3609 123.084 57.156H123.929C123.951 57.2859 123.961 57.4367 123.959 57.6086C123.955 57.7805 123.95 57.935 123.942 58.0722C123.915 58.5988 123.75 58.9783 123.449 59.2105C123.147 59.4427 122.641 59.5588 121.932 59.5588C121.217 59.5588 120.705 59.4427 120.396 59.2105C120.085 58.9783 119.919 58.5988 119.897 58.0722C119.878 57.743 119.866 57.3545 119.858 56.9064C119.853 56.4603 119.853 56.0123 119.858 55.5624C119.866 55.1107 119.878 54.7176 119.897 54.383C119.919 53.8435 120.087 53.4577 120.401 53.2255C120.716 52.9932 121.229 52.8771 121.94 52.8771C122.644 52.8771 123.152 52.9905 123.462 53.2172C123.773 53.4458 123.933 53.8207 123.942 54.3418C123.95 54.4771 123.955 54.6307 123.959 54.8026C123.961 54.9745 123.951 55.1245 123.929 55.2525ZM127.08 59.5588C126.384 59.5588 125.914 59.4427 125.671 59.2105C125.427 58.9783 125.306 58.5988 125.306 58.0722V53.7137H124.664V52.9649H125.328V51.1161H126.178V52.9649H127.651V53.7137H126.17V58.1654C126.17 58.4123 126.221 58.5824 126.323 58.6756C126.428 58.7689 126.687 58.8155 127.102 58.8155C127.271 58.8155 127.4 58.8128 127.492 58.8073C127.583 58.8 127.689 58.7945 127.81 58.7908V59.5067C127.704 59.525 127.588 59.5378 127.462 59.5451C127.337 59.5543 127.21 59.5588 127.08 59.5588ZM132.706 59.5534C132.161 59.5534 131.758 59.4464 131.496 59.2324C131.235 59.0167 131.082 58.6811 131.038 58.2258C131.033 58.138 131.027 58.0493 131.022 57.9597C131.015 57.8701 131.016 57.7833 131.025 57.6991C131.056 57.3005 131.181 56.9668 131.4 56.698C131.618 56.4273 132.033 56.1805 132.646 55.9574C132.894 55.8678 133.158 55.7873 133.436 55.716C133.712 55.6447 133.986 55.5752 134.259 55.5076V54.2705C134.259 54.0511 134.176 53.8892 134.012 53.785C133.845 53.6789 133.557 53.6259 133.148 53.6259C132.789 53.6259 132.518 53.6707 132.333 53.7603C132.148 53.8499 132.047 54.0127 132.029 54.2486C132.019 54.3601 132.015 54.5201 132.015 54.7286C132.015 54.9352 132.019 55.1098 132.029 55.2525H131.192C131.183 55.1409 131.174 54.9965 131.165 54.8191C131.155 54.6399 131.157 54.4808 131.17 54.3418C131.194 53.8243 131.363 53.4513 131.678 53.2227C131.992 52.9923 132.493 52.8771 133.181 52.8771C133.899 52.8771 134.398 53.0014 134.678 53.2501C134.956 53.5007 135.098 53.9121 135.103 54.4844V59.4793H134.259V58.8621H134.072C133.961 59.0852 133.801 59.2562 133.592 59.3751C133.385 59.4939 133.09 59.5534 132.706 59.5534ZM132.92 58.8292C133.562 58.8292 134.006 58.6372 134.253 58.2532V56.2235C134.037 56.2692 133.817 56.3222 133.592 56.3825C133.367 56.4429 133.103 56.5243 132.799 56.6267C132.437 56.7602 132.196 56.9138 132.075 57.0875C131.955 57.263 131.885 57.4669 131.867 57.6991C131.872 57.765 131.876 57.8372 131.878 57.9158C131.88 57.9945 131.885 58.0758 131.894 58.16C131.925 58.3739 132.032 58.5394 132.215 58.6564C132.398 58.7716 132.633 58.8292 132.92 58.8292ZM137.199 54.2156V59.4793H136.335V52.9649H137.199V53.5738H137.405C137.544 53.3507 137.726 53.1788 137.951 53.0581C138.175 52.9374 138.46 52.8771 138.804 52.8771C139.308 52.8771 139.684 52.9877 139.931 53.209C140.176 53.4284 140.298 53.7978 140.298 54.3171V59.4793H139.44V54.2431C139.44 54.02 139.37 53.8581 139.229 53.7576C139.09 53.657 138.864 53.6067 138.551 53.6067C138.239 53.6067 137.963 53.6597 137.726 53.7658C137.49 53.8737 137.314 54.0236 137.199 54.2156ZM142.956 59.5588C142.452 59.5588 142.077 59.4473 141.832 59.2242C141.585 59.0011 141.455 58.6327 141.442 58.1188C141.424 57.7531 141.412 57.3517 141.407 56.9147C141.399 56.4776 141.399 56.0333 141.407 55.5816C141.412 55.1318 141.424 54.7103 141.442 54.3171C141.455 53.7978 141.588 53.4284 141.84 53.209C142.092 52.9877 142.469 52.8771 142.97 52.8771C143.339 52.8771 143.63 52.9338 143.842 53.0472C144.054 53.1605 144.239 53.3361 144.396 53.5738H144.569V50.787H145.428V59.4793H144.569V58.8621H144.374C144.223 59.0852 144.041 59.2571 143.829 59.3778C143.618 59.4985 143.328 59.5588 142.956 59.5588ZM143.203 58.8292C143.878 58.8292 144.333 58.6263 144.569 58.2203V54.2156C144.337 53.8097 143.884 53.6067 143.211 53.6067C142.899 53.6067 142.672 53.657 142.531 53.7576C142.39 53.8581 142.317 54.02 142.312 54.2431C142.286 54.9123 142.275 55.5917 142.279 56.2811C142.284 56.9704 142.295 57.6077 142.312 58.1929C142.321 58.4123 142.394 58.5732 142.531 58.6756C142.667 58.778 142.891 58.8292 143.203 58.8292ZM153.382 58.6208V59.4793H149.356V49.9175H153.382V50.7733H150.288V54.2294H153.174V55.0851H150.288V58.6208H153.382ZM155.129 54.2156V59.4793H154.265V52.9649H155.129V53.5738H155.335C155.474 53.3507 155.656 53.1788 155.881 53.0581C156.108 52.9374 156.393 52.8771 156.737 52.8771C157.24 52.8771 157.615 52.9877 157.861 53.209C158.106 53.4284 158.229 53.7978 158.229 54.3171V59.4793H157.37V54.2431C157.37 54.02 157.301 53.8581 157.162 53.7576C157.021 53.657 156.794 53.6067 156.482 53.6067C156.169 53.6067 155.894 53.6597 155.656 53.7658C155.42 53.8737 155.245 54.0236 155.129 54.2156ZM161.282 61.3609C160.675 61.3609 160.186 61.2851 159.814 61.1333C159.445 60.9815 159.248 60.7429 159.225 60.4174C159.225 60.3808 159.223 60.3378 159.219 60.2885C159.215 60.2409 159.214 60.1897 159.214 60.1349C159.23 59.9392 159.329 59.781 159.51 59.6603C159.691 59.5396 159.9 59.4656 160.138 59.4382V59.2708C159.695 59.1776 159.467 58.9856 159.452 58.6948C159.449 58.6199 159.449 58.544 159.452 58.4672C159.458 58.3154 159.528 58.1883 159.663 58.0859C159.801 57.9835 159.954 57.9232 160.124 57.9049V57.7375C159.66 57.5364 159.412 57.092 159.381 56.4045C159.366 56.1375 159.356 55.9044 159.351 55.705C159.343 55.5076 159.342 55.3073 159.345 55.1043C159.351 54.8995 159.363 54.6591 159.381 54.383C159.403 53.8527 159.557 53.4687 159.845 53.2309C160.133 52.995 160.594 52.8771 161.227 52.8771C161.691 52.8771 162.06 52.9301 162.332 53.0362C162.605 53.1441 162.801 53.3114 162.922 53.5381H163.111C163.142 53.156 163.43 52.9649 163.973 52.9649V53.7137H163.739C163.343 53.7137 163.135 53.9432 163.117 54.4022L163.103 54.9315C163.112 55.1912 163.117 55.4262 163.117 55.6365C163.117 55.8449 163.103 56.1009 163.076 56.4045C163.054 56.9458 162.902 57.3325 162.62 57.5647C162.339 57.797 161.874 57.9131 161.227 57.9131C160.852 57.9076 160.581 57.936 160.412 57.9981C160.242 58.0621 160.157 58.1654 160.157 58.3081V58.3602C160.166 58.49 160.26 58.5815 160.437 58.6345C160.616 58.6893 160.913 58.7213 161.328 58.7305C161.994 58.7469 162.504 58.8411 162.859 59.013C163.214 59.1849 163.407 59.4702 163.438 59.8688V60.2171C163.407 60.6359 163.193 60.9312 162.796 61.1031C162.397 61.275 161.893 61.3609 161.282 61.3609ZM161.227 57.156C161.585 57.156 161.84 57.1067 161.989 57.0079C162.138 56.9092 162.219 56.7483 162.234 56.5252C162.256 56.2088 162.267 55.8394 162.267 55.417C162.267 54.9965 162.256 54.6115 162.234 54.2623C162.219 54.0264 162.136 53.8609 161.984 53.7658C161.832 53.6725 161.58 53.6259 161.227 53.6259C160.876 53.6259 160.624 53.6744 160.473 53.7713C160.321 53.8664 160.236 54.0328 160.218 54.2705C160.168 55.1171 160.168 55.8641 160.218 56.5115C160.236 56.7309 160.323 56.8927 160.478 56.997C160.634 57.103 160.883 57.156 161.227 57.156ZM161.301 60.6505C161.685 60.6505 161.999 60.6149 162.242 60.5436C162.485 60.4722 162.616 60.3451 162.634 60.1623C162.64 60.1129 162.64 60.0672 162.637 60.0251C162.635 59.9831 162.634 59.9392 162.634 59.8935C162.616 59.7015 162.488 59.578 162.25 59.5232C162.011 59.4665 161.694 59.4336 161.301 59.4244C160.922 59.4171 160.621 59.4464 160.396 59.5122C160.169 59.5799 160.045 59.7097 160.023 59.9017V60.1623C160.045 60.3579 160.17 60.4887 160.399 60.5545C160.625 60.6185 160.926 60.6505 161.301 60.6505ZM166.129 59.5534C165.584 59.5534 165.181 59.4464 164.922 59.2324C164.66 59.0167 164.507 58.6811 164.461 58.2258C164.457 58.138 164.452 58.0493 164.444 57.9597C164.439 57.8701 164.441 57.7833 164.45 57.6991C164.481 57.3005 164.605 56.9668 164.823 56.698C165.042 56.4273 165.457 56.1805 166.068 55.9574C166.319 55.8678 166.582 55.7873 166.858 55.716C167.136 55.6447 167.411 55.5752 167.684 55.5076V54.2705C167.684 54.0511 167.601 53.8892 167.434 53.785C167.27 53.6789 166.982 53.6259 166.57 53.6259C166.214 53.6259 165.943 53.6707 165.758 53.7603C165.574 53.8499 165.472 54.0127 165.454 54.2486C165.445 54.3601 165.44 54.5201 165.44 54.7286C165.44 54.9352 165.445 55.1098 165.454 55.2525H164.617C164.608 55.1409 164.599 54.9965 164.59 54.8191C164.581 54.6399 164.582 54.4808 164.595 54.3418C164.617 53.8243 164.786 53.4513 165.103 53.2227C165.417 52.9923 165.918 52.8771 166.606 52.8771C167.324 52.8771 167.823 53.0014 168.101 53.2501C168.38 53.5007 168.522 53.9121 168.526 54.4844V59.4793H167.684V58.8621H167.495C167.383 59.0852 167.224 59.2562 167.017 59.3751C166.809 59.4939 166.513 59.5534 166.129 59.5534ZM166.342 58.8292C166.986 58.8292 167.431 58.6372 167.676 58.2532V56.2235C167.462 56.2692 167.242 56.3222 167.017 56.3825C166.792 56.4429 166.528 56.5243 166.225 56.6267C165.862 56.7602 165.621 56.9138 165.5 57.0875C165.38 57.263 165.31 57.4669 165.292 57.6991C165.297 57.765 165.301 57.8372 165.303 57.9158C165.305 57.9945 165.31 58.0758 165.319 58.16C165.35 58.3739 165.457 58.5394 165.64 58.6564C165.823 58.7716 166.057 58.8292 166.342 58.8292ZM171.592 61.3609C170.985 61.3609 170.497 61.2851 170.128 61.1333C169.757 60.9815 169.56 60.7429 169.538 60.4174C169.538 60.3808 169.535 60.3378 169.53 60.2885C169.526 60.2409 169.524 60.1897 169.524 60.1349C169.543 59.9392 169.642 59.781 169.823 59.6603C170.002 59.5396 170.211 59.4656 170.449 59.4382V59.2708C170.006 59.1776 169.778 58.9856 169.766 58.6948C169.76 58.6199 169.76 58.544 169.766 58.4672C169.769 58.3154 169.84 58.1883 169.977 58.0859C170.112 57.9835 170.265 57.9232 170.435 57.9049V57.7375C169.97 57.5364 169.723 57.092 169.692 56.4045C169.679 56.1375 169.669 55.9044 169.661 55.705C169.654 55.5076 169.653 55.3073 169.659 55.1043C169.662 54.8995 169.673 54.6591 169.692 54.383C169.714 53.8527 169.869 53.4687 170.158 53.2309C170.445 52.995 170.906 52.8771 171.54 52.8771C172.005 52.8771 172.373 52.9301 172.646 53.0362C172.916 53.1441 173.112 53.3114 173.233 53.5381H173.422C173.453 53.156 173.741 52.9649 174.286 52.9649V53.7137H174.05C173.653 53.7137 173.446 53.9432 173.427 54.4022L173.414 54.9315C173.423 55.1912 173.427 55.4262 173.427 55.6365C173.427 55.8449 173.415 56.1009 173.389 56.4045C173.365 56.9458 173.213 57.3325 172.934 57.5647C172.652 57.797 172.188 57.9131 171.54 57.9131C171.165 57.9076 170.893 57.936 170.723 57.9981C170.553 58.0621 170.468 58.1654 170.468 58.3081V58.3602C170.477 58.49 170.571 58.5815 170.75 58.6345C170.928 58.6893 171.224 58.7213 171.639 58.7305C172.305 58.7469 172.815 58.8411 173.17 59.013C173.524 59.1849 173.717 59.4702 173.748 59.8688V60.2171C173.717 60.6359 173.503 60.9312 173.107 61.1031C172.71 61.275 172.205 61.3609 171.592 61.3609ZM171.54 57.156C171.897 57.156 172.15 57.1067 172.3 57.0079C172.45 56.9092 172.531 56.7483 172.544 56.5252C172.566 56.2088 172.577 55.8394 172.577 55.417C172.577 54.9965 172.566 54.6115 172.544 54.2623C172.531 54.0264 172.449 53.8609 172.297 53.7658C172.146 53.6725 171.893 53.6259 171.54 53.6259C171.187 53.6259 170.935 53.6744 170.783 53.7713C170.632 53.8664 170.546 54.0328 170.528 54.2705C170.479 55.1171 170.479 55.8641 170.528 56.5115C170.546 56.7309 170.633 56.8927 170.789 56.997C170.946 57.103 171.197 57.156 171.54 57.156ZM171.614 60.6505C171.998 60.6505 172.312 60.6149 172.555 60.5436C172.798 60.4722 172.928 60.3451 172.945 60.1623C172.95 60.1129 172.952 60.0672 172.95 60.0251C172.947 59.9831 172.945 59.9392 172.945 59.8935C172.928 59.7015 172.8 59.578 172.561 59.5232C172.321 59.4665 172.006 59.4336 171.614 59.4244C171.234 59.4171 170.931 59.4464 170.706 59.5122C170.48 59.5799 170.355 59.7097 170.333 59.9017V60.1623C170.355 60.3579 170.481 60.4887 170.709 60.5545C170.938 60.6185 171.24 60.6505 171.614 60.6505ZM176.944 59.5588C176.207 59.5588 175.681 59.4427 175.367 59.2105C175.052 58.9783 174.883 58.5988 174.859 58.0722C174.843 57.743 174.831 57.3545 174.824 56.9064C174.816 56.4603 174.816 56.0123 174.824 55.5624C174.831 55.1107 174.843 54.7176 174.859 54.383C174.883 53.8435 175.057 53.4577 175.38 53.2255C175.704 52.9932 176.225 52.8771 176.944 52.8771C177.622 52.8771 178.113 52.9905 178.417 53.2172C178.72 53.4458 178.888 53.8207 178.919 54.3418C178.928 54.4991 178.937 54.7715 178.946 55.1592C178.955 55.5487 178.942 55.962 178.905 56.399H175.699C175.699 56.6806 175.7 56.9659 175.704 57.2548C175.708 57.5455 175.717 57.8473 175.731 58.16C175.735 58.405 175.828 58.5751 176.011 58.6701C176.194 58.7634 176.496 58.81 176.916 58.81C177.332 58.81 177.624 58.7634 177.794 58.6701C177.964 58.5751 178.057 58.405 178.074 58.16C178.089 57.9149 178.089 57.5803 178.074 57.156H178.905C178.927 57.2859 178.937 57.4367 178.935 57.6086C178.933 57.7805 178.928 57.935 178.919 58.0722C178.888 58.5988 178.728 58.9783 178.439 59.2105C178.152 59.4427 177.653 59.5588 176.944 59.5588ZM175.699 55.6886H178.088C178.097 55.385 178.101 55.0952 178.101 54.8191C178.101 54.5411 178.092 54.351 178.074 54.2486C178.057 54.0255 177.961 53.8664 177.786 53.7713C177.612 53.6744 177.332 53.6259 176.944 53.6259C176.51 53.6259 176.201 53.6744 176.017 53.7713C175.83 53.8664 175.735 54.0255 175.731 54.2486C175.717 54.5082 175.707 54.756 175.701 54.9919C175.694 55.2296 175.693 55.4618 175.699 55.6886Z" fill="#770737"/>
</g>
</g>
</g>
</g>
<g clip-path="url(#clip9_78_4441)">
<g clip-path="url(#clip10_78_4441)">
<path d="M68.1497 17.2311C68.9328 16.5531 69.561 15.7147 69.9917 14.7727C70.4224 13.8308 70.6456 12.8072 70.6462 11.7714C70.6462 7.7754 67.3954 4.5246 63.3994 4.5246C59.4034 4.5246 56.1526 7.7754 56.1526 11.7714C56.1526 15.7674 59.4034 19.019 63.3994 19.019C65.64 19.019 72.9543 19.3675 72.9543 23.8519C72.9543 25.7432 71.8673 27.9137 63.3994 27.9137C54.9306 27.9137 53.8445 25.7432 53.8445 23.8519C53.8445 21.8831 55.2265 20.4811 57.9555 19.6842C58.5474 19.5108 58.8858 18.8923 58.7132 18.3005C58.6726 18.1596 58.6045 18.0281 58.5129 17.9136C58.4213 17.799 58.3079 17.7038 58.1793 17.6333C58.0506 17.5628 57.9094 17.5184 57.7635 17.5028C57.6177 17.4871 57.4702 17.5004 57.3296 17.542C53.6428 18.6181 51.614 20.8595 51.614 23.8511C51.614 30.1443 60.1753 30.1443 63.4002 30.1443C66.6235 30.1443 75.1865 30.1443 75.1865 23.8511C75.1848 20.4836 72.625 18.1538 68.1497 17.2311ZM58.3831 11.7714C58.3831 9.00571 60.6329 6.75515 63.3994 6.75515C66.1659 6.75515 68.4156 9.00488 68.4156 11.7714C68.4156 14.5379 66.1659 16.7876 63.3994 16.7876C60.6329 16.7876 58.3831 14.5379 58.3831 11.7714ZM42.2725 58.2738C43.0555 57.5958 43.6837 56.7574 44.1144 55.8154C44.5452 54.8735 44.7684 53.8499 44.7689 52.8141C44.7689 48.8181 41.5181 45.5673 37.5213 45.5673C33.5245 45.5673 30.272 48.8181 30.272 52.8141C30.272 56.8101 33.5245 60.0609 37.5213 60.0609C39.7627 60.0609 47.0737 60.4093 47.0737 64.8938C47.0737 66.7876 45.9867 68.9598 37.5213 68.9598C29.0509 68.9598 27.9648 66.7884 27.9648 64.8938C27.9648 62.9291 29.3484 61.5279 32.0791 60.7261C32.3627 60.6425 32.6016 60.45 32.7435 60.1906C32.8853 59.9313 32.9186 59.6262 32.836 59.3424C32.7523 59.0588 32.5595 58.8199 32.3 58.6782C32.0405 58.5365 31.7353 58.5034 31.4515 58.5864C27.7647 59.6675 25.7342 61.9064 25.7342 64.8938C25.7342 71.192 34.298 71.192 37.5221 71.192C40.7454 71.192 49.3059 71.192 49.3059 64.8938C49.3059 61.5263 46.7469 59.1965 42.2725 58.2738ZM32.5034 52.8141C32.5054 51.4839 33.0348 50.2088 33.9757 49.2684C34.9165 48.328 36.1919 47.7992 37.5221 47.7978C40.2887 47.7978 42.5384 50.0484 42.5384 52.8141C42.5384 55.5798 40.2887 57.8303 37.5221 57.8303C36.1919 57.829 34.9165 57.3002 33.9757 56.3598C33.0348 55.4194 32.5054 54.1443 32.5034 52.8141ZM16.8745 17.2319C17.6577 16.5538 18.2859 15.7153 18.7166 14.7732C19.1474 13.8311 19.3705 12.8073 19.371 11.7714C19.371 7.7754 16.1201 4.5246 12.1233 4.5246C8.12733 4.5246 4.87652 7.7754 4.87652 11.7714C4.87652 15.7674 8.12733 19.019 12.1233 19.019C14.3647 19.019 21.6782 19.3675 21.6782 23.8519C21.6782 25.7432 20.5921 27.9137 12.1233 27.9137C3.65455 27.9137 2.56844 25.7432 2.56844 23.8511C2.56844 21.8822 3.95129 20.4802 6.67947 19.6834C6.95139 19.5903 7.17698 19.3961 7.30934 19.141C7.44169 18.8859 7.47062 18.5895 7.39011 18.3137C7.3096 18.0378 7.12584 17.8035 6.87705 17.6597C6.62826 17.5158 6.33359 17.4733 6.05431 17.5412C2.36756 18.6173 0.337891 20.8587 0.337891 23.8502C0.337891 30.1435 8.90002 30.1435 12.1242 30.1435C15.3483 30.1435 23.9104 30.1435 23.9104 23.8502C23.9096 20.4836 21.3506 18.1538 16.8745 17.2319ZM7.10791 11.7714C7.10945 10.4415 7.63844 9.16647 8.57884 8.22608C9.51923 7.28569 10.7942 6.7567 12.1242 6.75515C13.4541 6.75647 14.7293 7.2854 15.6697 8.22584C16.6102 9.16628 17.1391 10.4414 17.1404 11.7714C17.1391 13.1014 16.6102 14.3765 15.6697 15.317C14.7293 16.2574 13.4541 16.7863 12.1242 16.7876C10.7942 16.7863 9.51903 16.2574 8.57859 15.317C7.63815 14.3765 7.10923 13.1014 7.10791 11.7714ZM21.1389 61.8613C20.9488 61.8613 20.7571 61.813 20.5813 61.7113C10.367 55.799 4.02214 44.8263 4.02214 33.0725C4.02214 32.7767 4.13964 32.4931 4.3488 32.2839C4.55795 32.0747 4.84163 31.9572 5.13742 31.9572C5.43321 31.9572 5.71688 32.0747 5.92604 32.2839C6.13519 32.4931 6.25269 32.7767 6.25269 33.0725C6.25269 44.0319 12.1708 54.2653 21.6982 59.78C22.2308 60.0892 22.4142 60.7711 22.105 61.3029C21.8982 61.6605 21.5248 61.8613 21.1389 61.8613ZM53.1002 61.8613C52.7142 61.8613 52.3408 61.6613 52.1341 61.3037C52.0606 61.1771 52.0129 61.0372 51.9935 60.8921C51.9742 60.747 51.9836 60.5996 52.0213 60.4581C52.059 60.3167 52.1242 60.1841 52.2133 60.0678C52.3023 59.9516 52.4133 59.8541 52.54 59.7808C62.0657 54.2678 67.983 44.0327 67.9855 33.0734C67.9935 32.7827 68.1145 32.5067 68.3229 32.3039C68.5312 32.1012 68.8105 31.9877 69.1012 31.9877C69.392 31.9877 69.6712 32.1012 69.8796 32.3039C70.0879 32.5067 70.209 32.7827 70.2169 33.0734C70.2144 44.8271 63.8695 55.8023 53.6578 61.7113C53.4811 61.813 53.2902 61.8613 53.1002 61.8613ZM53.4994 6.75515C53.3044 6.75515 53.1068 6.70347 52.9268 6.59761C43.582 1.00122 31.5006 0.853685 22.0858 6.12583C21.8286 6.25582 21.5312 6.28142 21.2556 6.19726C20.9801 6.1131 20.7477 5.92569 20.607 5.67421C20.4664 5.42273 20.4284 5.12663 20.5009 4.84777C20.5735 4.56892 20.751 4.32889 20.9964 4.17784C31.098 -1.47439 44.0554 -1.31519 54.0729 4.68214C54.2821 4.80772 54.4444 4.99838 54.5349 5.22494C54.6254 5.4515 54.6392 5.70148 54.5741 5.93662C54.5091 6.17177 54.3688 6.37912 54.1747 6.52695C53.9806 6.67477 53.7434 6.75493 53.4994 6.75515Z" fill="#A020F0"/>
</g>
</g>
</g>
</g>
</g>
<defs>
<clipPath id="clip0_78_4441">
<rect width="239.496" height="71.25" fill="white"/>
</clipPath>
<clipPath id="clip1_78_4441">
<rect width="238.82" height="71.1341" fill="white" transform="translate(0.337891 0.0578613)"/>
</clipPath>
<clipPath id="clip2_78_4441">
<rect width="238.82" height="71.1341" fill="white" transform="translate(0.337891 0.0578613)"/>
</clipPath>
<clipPath id="clip3_78_4441">
<rect width="145.799" height="51.4719" fill="white" transform="translate(93.3594 9.88916)"/>
</clipPath>
<clipPath id="clip4_78_4441">
<rect width="145.799" height="51.4719" fill="white" transform="translate(93.3594 9.88916)"/>
</clipPath>
<clipPath id="clip5_78_4441">
<rect width="145.799" height="32.3169" fill="white" transform="translate(93.3594 9.88916)"/>
</clipPath>
<clipPath id="clip6_78_4441">
<rect width="145.799" height="32.3169" fill="white" transform="translate(93.3594 9.88916)"/>
</clipPath>
<clipPath id="clip7_78_4441">
<rect width="85.5985" height="11.5257" fill="white" transform="translate(93.3594 49.8352)"/>
</clipPath>
<clipPath id="clip8_78_4441">
<rect width="85.5985" height="11.5257" fill="white" transform="translate(93.3594 49.8352)"/>
</clipPath>
<clipPath id="clip9_78_4441">
<rect width="74.8486" height="71.1341" fill="white" transform="translate(0.337891 0.0578613)"/>
</clipPath>
<clipPath id="clip10_78_4441">
<rect width="74.8486" height="71.1341" fill="white" transform="translate(0.337891 0.0578613)"/>
</clipPath>
</defs>
</svg>
