<svg width="30" height="24" viewBox="0 0 30 24" fill="none" xmlns="http://www.w3.org/2000/svg">
<path d="M28.4568 6C28.4568 6 22.425 13.5 15 13.5C7.575 13.5 1.54318 6 1.54318 6M8.7 22.5H21.3C23.8202 22.5 25.0804 22.5 26.043 22.0095C26.8897 21.5781 27.5781 20.8897 28.0095 20.043C28.5 19.0804 28.5 17.8202 28.5 15.3V8.7C28.5 6.17976 28.5 4.91965 28.0095 3.95704C27.5781 3.11031 26.8897 2.4219 26.043 1.99047C25.0804 1.5 23.8202 1.5 21.3 1.5H8.7C6.17976 1.5 4.91965 1.5 3.95704 1.99047C3.11031 2.4219 2.4219 3.11031 1.99047 3.95704C1.5 4.91965 1.5 6.17976 1.5 8.7V15.3C1.5 17.8202 1.5 19.0804 1.99047 20.043C2.4219 20.8897 3.11031 21.5781 3.95704 22.0095C4.91965 22.5 6.17976 22.5 8.7 22.5Z" stroke="url(#paint0_linear_171_544)" stroke-width="2" stroke-linecap="round" stroke-linejoin="round"/>
<defs>
<linearGradient id="paint0_linear_171_544" x1="15" y1="1.5" x2="15" y2="22.5" gradientUnits="userSpaceOnUse">
<stop stop-color="#67088A"/>
<stop offset="1" stop-color="#F5B116"/>
</linearGradient>
</defs>
</svg>
