<svg id='Instagram_24' viewBox='0 0 24 24' xmlns='http://www.w3.org/2000/svg' xmlns:xlink='http://www.w3.org/1999/xlink'><rect  stroke='none' fill='#fff' opacity='0'/>
<g transform="matrix(1.11 0 0 1.11 12 12)" >
<path style="stroke: none; stroke-width: 1; stroke-dasharray: none; stroke-linecap: butt; stroke-dashoffset: 0; stroke-linejoin: miter; stroke-miterlimit: 4; fill: #fff; fill-rule: nonzero; opacity: 1;" transform=" translate(-12, -12)" d="M 8 3 C 5.239 3 3 5.239 3 8 L 3 16 C 3 18.761 5.239 21 8 21 L 16 21 C 18.761 21 21 18.761 21 16 L 21 8 C 21 5.239 18.761 3 16 3 L 8 3 z M 18 5 C 18.552 5 19 5.448 19 6 C 19 6.552 18.552 7 18 7 C 17.448 7 17 6.552 17 6 C 17 5.448 17.448 5 18 5 z M 12 7 C 14.761 7 17 9.239 17 12 C 17 14.761 14.761 17 12 17 C 9.239 17 7 14.761 7 12 C 7 9.239 9.239 7 12 7 z M 12 9 C 10.34314575050762 9 9 10.34314575050762 9 12 C 9 13.65685424949238 10.34314575050762 15 12 15 C 13.65685424949238 15 15 13.65685424949238 15 12 C 15 10.34314575050762 13.65685424949238 9 12 9 z" stroke-linecap="round" />
</g>
</svg>