<svg width="36" height="36" viewBox="0 0 36 36" fill="none" xmlns="http://www.w3.org/2000/svg">
<path d="M16.5 6.00003H10.8C9.11984 6.00003 8.27976 6.00003 7.63803 6.32701C7.07354 6.61463 6.6146 7.07358 6.32698 7.63806C6 8.2798 6 9.11988 6 10.8V25.2C6 26.8802 6 27.7203 6.32698 28.362C6.6146 28.9265 7.07354 29.3854 7.63803 29.6731C8.27976 30 9.11984 30 10.8 30H25.2C26.8802 30 27.7202 30 28.362 29.6731C28.9265 29.3854 29.3854 28.9265 29.673 28.362C30 27.7203 30 26.8802 30 25.2V18.75M23.25 8.25003L27.4926 12.4927M16.1441 15.3559L26.1165 5.38356C27.288 4.21199 29.1875 4.21199 30.3591 5.38356C31.5307 6.55513 31.5307 8.45463 30.3591 9.6262L20.0662 19.9192C18.9237 21.0616 18.3525 21.6329 17.7018 22.0871C17.1243 22.4904 16.5014 22.8244 15.846 23.0824C15.1076 23.373 14.3157 23.5328 12.7319 23.8524L12 24L12.0712 23.5018C12.323 21.7387 12.449 20.8572 12.7354 20.0342C12.9896 19.3039 13.3369 18.6094 13.7686 17.9679C14.2551 17.2449 14.8848 16.6152 16.1441 15.3559Z" stroke="url(#paint0_linear_78_4521)" stroke-width="2" stroke-linecap="round" stroke-linejoin="round"/>
<defs>
<linearGradient id="paint0_linear_78_4521" x1="18.6189" y1="4.50488" x2="18.6189" y2="30" gradientUnits="userSpaceOnUse">
<stop stop-color="#67088A"/>
<stop offset="1" stop-color="#F5B116"/>
</linearGradient>
</defs>
</svg>
