<svg width="36" height="36" viewBox="0 0 36 36" fill="none" xmlns="http://www.w3.org/2000/svg">
<path d="M4.5 8.25C4.5 21.0906 14.9094 31.5 27.75 31.5C28.3293 31.5 28.9037 31.4788 29.4724 31.4372C30.1251 31.3894 30.4514 31.3655 30.7485 31.1944C30.9945 31.0528 31.2278 30.8017 31.3511 30.546C31.5 30.2373 31.5 29.8772 31.5 29.157V24.931C31.5 24.3254 31.5 24.0226 31.4003 23.763C31.3123 23.5337 31.1693 23.3295 30.9839 23.1684C30.7739 22.986 30.4894 22.8825 29.9202 22.6755L25.1099 20.9263C24.4477 20.6855 24.1166 20.5651 23.8025 20.5856C23.5254 20.6036 23.2589 20.6981 23.0324 20.8587C22.7756 21.0407 22.5943 21.3428 22.2318 21.9471L21 24C17.0252 22.1999 13.8028 18.9733 12 15L14.0529 13.7682C14.6572 13.4057 14.9593 13.2244 15.1413 12.9676C15.3019 12.7411 15.3964 12.4746 15.4144 12.1975C15.4349 11.8834 15.3145 11.5523 15.0737 10.8901L13.3245 6.07982C13.1175 5.51064 13.014 5.22605 12.8316 5.01615C12.6705 4.83073 12.4663 4.68772 12.237 4.59968C11.9774 4.5 11.6746 4.5 11.069 4.5H6.84302C6.12282 4.5 5.76272 4.5 5.45397 4.64888C5.19825 4.77219 4.94721 5.00552 4.80555 5.25155C4.63452 5.5486 4.61063 5.87493 4.56283 6.52759C4.52119 7.09629 4.5 7.67067 4.5 8.25Z" stroke="url(#paint0_linear_78_4505)" stroke-width="2" stroke-linecap="round" stroke-linejoin="round"/>
<defs>
<linearGradient id="paint0_linear_78_4505" x1="18" y1="4.5" x2="18" y2="31.5" gradientUnits="userSpaceOnUse">
<stop stop-color="#67088A"/>
<stop offset="1" stop-color="#F5B116"/>
</linearGradient>
</defs>
</svg>
